# xmcd
#
# Track frame offsets: 
#        150
#        19431
#        36369
#        57448
#        76743
#        92027
#        108964
#        128338
#        147795
#        167957
#        185762
#        205353
#        220604
#
# Disc length: 3156 seconds
#
# Revision: 0
# Processed by: cddbd v1.5.2PL0 Copyright (c) Steve Scherf et al.
# Submitted via: ExactAudioCopy v0.95b4
#
DISCID=b40c520d
DTITLE=Various Artist - SOS乐曲大全
DYEAR=2006
DGENRE=ANIMATION
TTITLE0=大家来冒险
TTITLE1=听风发带
TTITLE2=God knows…
TTITLE3=Lost my music
TTITLE4=恋之实玖留传说
TTITLE5=SOS没问题
TTITLE6=平行季节
TTITLE7=SELECT?
TTITLE8=雪，无音，于窗边
TTITLE9=寻觅快乐人生
TTITLE10=时间的谜题
TTITLE11=欢迎来到未知世界
TTITLE12=晴天好心情
EXTD=
EXTT0=
EXTT1=
EXTT2=
EXTT3=
EXTT4=
EXTT5=
EXTT6=
EXTT7=
EXTT8=
EXTT9=
EXTT10=
EXTT11=
EXTT12=
PLAYORDER=
